<?xml version="1.0" encoding="utf-8"?>
<!-- Generator: Adobe Illustrator 22.0.0, SVG Export Plug-In . SVG Version: 6.00 Build 0)  -->
<svg version="1.1" id="Warstwa_1" xmlns="http://www.w3.org/2000/svg" xmlns:xlink="http://www.w3.org/1999/xlink" x="0px" y="0px"
	 viewBox="0 0 105.8 147.9" style="enable-background:new 0 0 105.8 147.9;" xml:space="preserve">
<style type="text/css">
	.st0{fill:#FFFFFF;}
	.st1{fill:#E30613;}
</style>
<g>
	<rect x="18.9" y="70.9" width="70.9" height="70.9"/>
	<g>
		<path class="st0" d="M55.8,90.8H44.8l-0.6,4.4c0.6-0.1,1.1-0.1,1.8-0.1c2.7,0,5.5,0.6,7.5,2.1c2.2,1.5,3.5,3.8,3.5,7.2
			c0,5.3-4.6,10-12.3,10c-3.5,0-6.4-0.8-8-1.6l1.2-5c1.3,0.6,3.9,1.4,6.5,1.4c2.8,0,5.7-1.3,5.7-4.4c0-2.9-2.3-4.8-8.1-4.8
			c-1.6,0-2.7,0.1-3.9,0.3l1.9-15h15.7V90.8z"/>
	</g>
	<g>
		<path class="st0" d="M35.7,128c-0.4,0.1-1.2,0.3-2,0.3c-1.1,0-1.8-0.3-2.4-0.8c-0.5-0.5-0.8-1.3-0.8-2.1c0-2,1.4-3.1,3.4-3.1
			c0.8,0,1.3,0.1,1.6,0.3l-0.3,1.1c-0.3-0.1-0.7-0.3-1.4-0.3c-1.1,0-1.9,0.6-1.9,1.9c0,1.2,0.8,1.9,1.8,1.9c0.3,0,0.5,0,0.7-0.1V126
			h-0.9v-1h2.2V128z"/>
		<path class="st0" d="M37.7,128.3l-1.4-5.9h1.4l0.4,2.4c0.1,0.7,0.3,1.5,0.3,2h0c0.1-0.6,0.2-1.3,0.4-2.1l0.5-2.4h1.4l0.5,2.5
			c0.1,0.7,0.2,1.3,0.3,2h0c0.1-0.7,0.2-1.3,0.3-2l0.5-2.4h1.4l-1.5,5.9h-1.4l-0.5-2.5c-0.1-0.6-0.2-1.1-0.3-1.8h0
			c-0.1,0.7-0.2,1.2-0.3,1.8l-0.6,2.5H37.7z"/>
	</g>
	<g>
		<path class="st0" d="M45.6,126.8l-0.4,1.5h-1.4l1.8-5.9h1.7l1.8,5.9h-1.4l-0.5-1.5H45.6z M47.1,125.8l-0.4-1.2
			c-0.1-0.3-0.2-0.8-0.3-1.1h0c-0.1,0.3-0.2,0.8-0.3,1.1l-0.3,1.2H47.1z"/>
		<path class="st0" d="M50,122.5c0.4-0.1,1.1-0.1,1.8-0.1c0.9,0,1.5,0.1,1.9,0.5c0.3,0.3,0.5,0.7,0.5,1.2c0,0.7-0.5,1.3-1,1.4v0
			c0.4,0.2,0.6,0.6,0.8,1.1c0.2,0.7,0.4,1.4,0.5,1.7H53c-0.1-0.2-0.2-0.6-0.4-1.4c-0.2-0.7-0.4-0.9-0.9-0.9h-0.4v2.3H50V122.5z
			 M51.3,125h0.5c0.7,0,1.1-0.3,1.1-0.8c0-0.5-0.4-0.8-1-0.8c-0.3,0-0.5,0-0.6,0V125z"/>
		<path class="st0" d="M56.5,126.8l-0.4,1.5h-1.4l1.8-5.9h1.7l1.8,5.9h-1.4l-0.5-1.5H56.5z M58,125.8l-0.4-1.2
			c-0.1-0.3-0.2-0.8-0.3-1.1h0c-0.1,0.3-0.2,0.8-0.3,1.1l-0.3,1.2H58z"/>
		<path class="st0" d="M60.8,128.3v-5.9h1.6l1.2,2.2c0.3,0.6,0.7,1.4,1,2h0c-0.1-0.8-0.1-1.6-0.1-2.4v-1.7h1.2v5.9h-1.4L63,126
			c-0.3-0.6-0.7-1.4-1-2.1l0,0c0,0.8,0.1,1.6,0.1,2.6v1.8H60.8z"/>
		<path class="st0" d="M71.2,128.1c-0.2,0.1-0.8,0.3-1.5,0.3c-2,0-3.1-1.3-3.1-2.9c0-2,1.4-3.1,3.2-3.1c0.7,0,1.2,0.1,1.4,0.3
			l-0.3,1.1c-0.3-0.1-0.6-0.2-1.1-0.2c-1.1,0-1.9,0.6-1.9,1.9c0,1.2,0.7,1.9,1.9,1.9c0.4,0,0.8-0.1,1.1-0.2L71.2,128.1z"/>
		<path class="st0" d="M73.2,122.4h1.3v3.7c0,1.7-0.8,2.3-2.1,2.3c-0.3,0-0.7-0.1-1-0.1l0.1-1.1c0.2,0.1,0.4,0.1,0.7,0.1
			c0.6,0,0.9-0.3,0.9-1.2V122.4z"/>
	</g>
	<g>
		<path class="st0" d="M77.9,122.4v5.9h-1.3v-5.9H77.9z"/>
	</g>
	<g>
		<path class="st0" d="M64.2,112.9h1.3v4.8h2.3v1.1h-3.7V112.9z"/>
		<path class="st0" d="M70.1,117.3l-0.4,1.5h-1.4l1.8-5.9h1.7l1.8,5.9h-1.4l-0.5-1.5H70.1z M71.6,116.3l-0.4-1.2
			c-0.1-0.3-0.2-0.8-0.3-1.1h0c-0.1,0.3-0.2,0.8-0.3,1.1l-0.3,1.2H71.6z"/>
	</g>
	<g>
		<path class="st0" d="M75.1,114h-1.6v-1.1h4.5v1.1h-1.6v4.8h-1.3V114z"/>
	</g>
	<rect x="18.9" class="st1" width="70.9" height="70.9"/>
	<path class="st0" d="M71.6,32.4h-6.7v3.2h1v13h4.1v-5.3h1.4c3.9,0,5.8-1.8,5.8-5.5c0-1.7-0.5-3-1.5-4
		C74.7,32.9,73.4,32.4,71.6,32.4 M70.7,40.1h-0.6v-4.4h0.5c1.7,0,2.5,0.7,2.5,2.2C73.1,39.3,72.3,40.1,70.7,40.1"/>
	<path class="st0" d="M53.4,32.1c-2.5,0-4.5,0.8-6.1,2.4c-1.6,1.6-2.4,3.6-2.4,6c0,2.4,0.8,4.4,2.4,6C49,48.2,51,49,53.4,49
		c2.4,0,4.5-0.8,6.1-2.4c1.6-1.6,2.4-3.6,2.4-6c0-2.4-0.8-4.4-2.4-6C57.9,32.9,55.9,32.1,53.4,32.1 M56.6,44
		c-0.8,0.9-1.8,1.3-3.1,1.3c-1.3,0-2.3-0.5-3.1-1.3c-0.8-0.9-1.2-2-1.2-3.5c0-1.4,0.4-2.6,1.2-3.5c0.8-0.9,1.9-1.3,3.1-1.3
		c1.3,0,2.3,0.4,3.1,1.3c0.8,0.9,1.2,2,1.2,3.5C57.8,42,57.4,43.1,56.6,44"/>
	<polygon class="st0" points="31.6,35.7 35.3,35.7 35.3,48.6 39.4,48.6 39.4,35.7 43,35.7 43,32.4 31.6,32.4 	"/>
	<path class="st0" d="M76.9,54.2H74v-2.4h3.1V51h-4v7.5h4.2v-0.8H74V55h2.9V54.2z M70.3,55.9c0,1.5-0.5,1.8-1.4,1.8
		c-0.3,0-0.6-0.1-0.8-0.1L68,58.4c0.2,0.1,0.7,0.2,1,0.2c1.3,0,2.3-0.6,2.3-2.6v-5h-1V55.9z M67,57.4c-0.4,0.2-1,0.3-1.6,0.3
		c-1.8,0-2.9-1.2-2.9-3c0-2,1.2-3.1,2.9-3.1c0.6,0,1.1,0.1,1.5,0.3l0.2-0.8c-0.3-0.1-0.8-0.3-1.8-0.3c-2.3,0-3.9,1.6-3.9,3.9
		c0,2.4,1.6,3.8,3.7,3.8c0.9,0,1.6-0.2,2-0.4L67,57.4z M56.1,58.5h1v-2.8l0.7-0.8l2.5,3.7h1.1l-2.9-4.3l2.7-3.2h-1.2l-2.3,2.8
		c-0.2,0.2-0.4,0.5-0.6,0.8h0V51h-1V58.5z M54.5,54.2h-2.9v-2.4h3.1V51h-4v7.5h4.2v-0.8h-3.2V55h2.9V54.2z M45.3,58.5h4.1v-0.8h-3.2
		V51h-1V58.5z M40.4,51.7c1.6,0,2.4,1.5,2.4,3c0,1.7-0.9,3.1-2.4,3.1c-1.5,0-2.4-1.4-2.4-3C38.1,53.1,38.9,51.7,40.4,51.7
		 M40.5,50.9c-2,0-3.5,1.5-3.5,3.9c0,2.3,1.4,3.8,3.4,3.8c1.9,0,3.5-1.4,3.5-3.9C43.8,52.4,42.5,50.9,40.5,50.9 M31.6,58.5h1v-2.8
		l0.7-0.8l2.5,3.7h1.1L34,54.2l2.7-3.2h-1.2l-2.3,2.8c-0.2,0.2-0.4,0.5-0.6,0.8h0V51h-1V58.5z"/>
</g>
</svg>
