<svg xmlns="http://www.w3.org/2000/svg" width="19" height="19" viewBox="0 0 19 19">
  <metadata><?xpacket begin="﻿" id="W5M0MpCehiHzreSzNTczkc9d"?>
<x:xmpmeta xmlns:x="adobe:ns:meta/" x:xmptk="Adobe XMP Core 5.6-c138 79.159824, 2016/09/14-01:09:01        ">
   <rdf:RDF xmlns:rdf="http://www.w3.org/1999/02/22-rdf-syntax-ns#">
      <rdf:Description rdf:about=""/>
   </rdf:RDF>
</x:xmpmeta>
                                                                                                    
                                                                                                    
                                                                                                    
                                                                                                    
                                                                                                    
                                                                                                    
                                                                                                    
                                                                                                    
                                                                                                    
                                                                                                    
                                                                                                    
                                                                                                    
                                                                                                    
                                                                                                    
                                                                                                    
                                                                                                    
                                                                                                    
                                                                                                    
                                                                                                    
                                                                                                    
                           
<?xpacket end="w"?></metadata>
<defs>
    <style>
      .cls-1 {
        fill: #00b194;
        fill-rule: evenodd;
      }
    </style>
  </defs>
  <path class="cls-1" d="M1270.19,3574.09V3575h-1.37c-0.01-.28-0.03-0.58-0.05-0.91a8.153,8.153,0,0,1-5.37-2.46,8.057,8.057,0,0,1-2.48-5.41H1260v-1.4c0.28-.01.57-0.03,0.91-0.04a8.533,8.533,0,0,1,7.87-7.86V3556h1.4c0.01,0.28.03,0.57,0.04,0.91a8.511,8.511,0,0,1,7.86,7.87H1279v1.4c-0.28.01-.58,0.03-0.91,0.04a8.033,8.033,0,0,1-2.45,5.37A8.177,8.177,0,0,1,1270.19,3574.09Zm-7.28-7.89a5.916,5.916,0,0,0,.88,2.73,6.523,6.523,0,0,0,2.79,2.54,6.108,6.108,0,0,0,2.23.62v-1.95h1.39c0.02,0.66-.01,1.3.01,1.96a6.736,6.736,0,0,0,3.84-1.73,5.862,5.862,0,0,0,1.58-2.29,3.886,3.886,0,0,0,.42-1.87c-0.67-.02-1.3.02-1.9-0.02v-1.41h1.96a6.949,6.949,0,0,0-.9-2.71,6.414,6.414,0,0,0-2.86-2.57,5.165,5.165,0,0,0-2.16-.57v1.93h-1.4c0-.35.01-0.67,0-0.99a3.183,3.183,0,0,0-.05-0.97,6.74,6.74,0,0,0-3.79,1.73,5.626,5.626,0,0,0-1.58,2.3,3.689,3.689,0,0,0-.42,1.86c0.67,0.02,1.3-.02,1.89.02v1.39h-1.93Zm4.91-.4c-0.01-1.27.56-1.96,1.68-1.99a1.745,1.745,0,0,1,1.68,2.11,1.709,1.709,0,0,1-1.57,1.26A1.635,1.635,0,0,1,1267.82,3565.8Z" transform="translate(-1260 -3556)"/>
</svg>
